<svg width="179" height="39" viewBox="0 0 179 39" fill="none" xmlns="http://www.w3.org/2000/svg">
<path d="M42.6036 30.5217V8.53851H45.8532V30.5217H42.6036Z" fill="black"/>
<path d="M49.8538 30.5217V8.53851H55.6043L65.2616 28.3858V8.53851H68.4172V30.5217H62.7919L53.0094 10.3285V30.5217H49.8538Z" fill="black"/>
<path d="M78.9795 30.5217L71.3851 8.53851H74.9476L81.6657 28.7317L88.509 8.53851H92.0089L84.3832 30.5217H78.9769H78.9795Z" fill="black"/>
<path d="M94.888 30.5217V8.53851H98.1375V30.5217H94.888Z" fill="black"/>
<path d="M128.312 30.5217V11.555H121.062V8.54114H138.561V11.555H131.53V30.5243H128.312V30.5217Z" fill="black"/>
<path d="M150.344 30.7733C147.822 30.7733 145.681 29.9478 143.923 28.2914C142.163 26.6377 141.281 24.4074 141.281 21.6032V8.53851H144.531V21.6032C144.531 23.4875 145.11 24.9735 146.265 26.0637C147.42 27.1514 148.782 27.6965 150.344 27.6965C151.906 27.6965 153.27 27.1514 154.438 26.0637C155.604 24.9761 156.188 23.4875 156.188 21.6032V8.53851H159.406V21.6032C159.406 24.3655 158.53 26.5853 156.78 28.26C155.03 29.9347 152.884 30.7733 150.344 30.7733Z" fill="black"/>
<path d="M171.093 30.7733C168.114 30.7733 165.227 29.78 162.437 27.7909V24.1794C163.686 25.2068 165.094 26.0533 166.657 26.7242C168.219 27.3951 169.729 27.728 171.189 27.728C172.65 27.728 173.779 27.4187 174.58 26.8002C175.38 26.1817 175.782 25.4348 175.782 24.5542C175.782 23.5714 175.265 22.7747 174.235 22.1666C173.205 21.5586 171.719 21.0266 169.781 20.5653C167.196 19.9573 165.311 19.1842 164.124 18.2407C162.938 17.2998 162.343 16.0523 162.343 14.5034C162.343 12.6401 163.11 11.1383 164.641 9.99568C166.171 8.85563 168.052 8.2843 170.282 8.2843C173.093 8.2843 175.771 9.07054 178.314 10.6404V14.0317C177.253 13.2559 176.001 12.5929 174.564 12.0373C173.127 11.4817 171.698 11.2039 170.282 11.2039C168.97 11.2039 167.848 11.5026 166.923 12.1002C165.994 12.6977 165.532 13.4761 165.532 14.4405C165.532 15.405 166.023 16.0681 167.001 16.5608C167.979 17.0535 169.606 17.5619 171.875 18.0834C176.624 19.1318 179 21.286 179 24.5516C179 26.4988 178.233 28.0267 176.702 29.1379C175.172 30.2492 173.302 30.7917 171.093 30.7707V30.7733Z" fill="black"/>
<path d="M116.56 26.3783C115.384 27.175 114.012 27.5707 112.45 27.5707C110.199 27.5707 108.329 26.7845 106.84 25.2146C105.351 23.6448 104.605 21.729 104.605 19.4672C104.605 17.2055 105.356 15.2268 106.856 13.6569C108.356 12.0871 110.22 11.3113 112.45 11.3323C114.012 11.3323 115.392 11.7411 116.591 12.5562C116.607 12.5667 116.623 12.5798 116.641 12.5929L118.274 9.96161C116.547 8.80585 114.607 8.22403 112.453 8.22403C109.37 8.22403 106.754 9.31952 104.608 11.5053C102.462 13.6936 101.39 16.3459 101.39 19.4672C101.39 22.5886 102.462 25.2094 104.608 27.3977C106.754 29.5861 109.367 30.679 112.453 30.679C114.622 30.679 116.563 30.0998 118.279 28.9492L116.646 26.3154C116.618 26.3363 116.591 26.3573 116.563 26.3756L116.56 26.3783Z" fill="black"/>
<path d="M3.12955 14.4301H0V2.46354L1.0171 2.08091C3.69026 1.07715 6.48078 0.377394 9.31303 0L9.72248 3.11874C7.48224 3.41489 5.26808 3.93381 3.12955 4.66239V14.4301Z" fill="black"/>
<path d="M9.31303 38.9974C6.48078 38.6226 3.69026 37.9228 1.0171 36.9165L0 36.5338V24.5673H3.12955V34.335C5.26808 35.0636 7.48224 35.5825 9.72248 35.8786L9.31303 38.9974Z" fill="black"/>
<path d="M19.2989 39L18.8895 35.8813C21.1297 35.5851 23.3439 35.0662 25.4824 34.3402V24.5725H28.6119V36.5391L27.5948 36.9217C24.9217 37.9255 22.1286 38.6252 19.2989 39Z" fill="black"/>
<path d="M28.6119 14.4275H25.4824V4.65977C23.3439 3.93119 21.1297 3.41489 18.8895 3.11874L19.2989 0C22.1312 0.374773 24.9217 1.07452 27.5948 2.07829L28.6119 2.46092V14.4275Z" fill="black"/>
<path d="M15.8694 12.5536H12.7399V26.4438H15.8694V12.5536Z" fill="black"/>
</svg>
