<svg xmlns="http://www.w3.org/2000/svg" xmlns:xlink="http://www.w3.org/1999/xlink" xmlns:xodm="http://www.corel.com/coreldraw/odm/2003" xml:space="preserve" width="965mm" height="309.777mm" style="shape-rendering:geometricPrecision; text-rendering:geometricPrecision; image-rendering:optimizeQuality; fill-rule:evenodd; clip-rule:evenodd" viewBox="0 0 96500 30977.7"> <defs> <style type="text/css"> .fil0 {fill:#29334D;fill-rule:nonzero} .fil1 {fill:#426FB5;fill-rule:nonzero} </style> </defs> <g id="Camada_x0020_1"> <metadata id="CorelCorpID_0Corel-Layer"></metadata> <g id="_1749455515760"> <g> <path class="fil0" d="M94977.8 13958.11c13.02,-34 32.13,-74.64 32.13,-108.64 19.1,-217.86 -506.52,-1081.04 -878.36,-1495.77 -192.19,-197.25 -391.03,-373.8 -608.89,-373.8 -750.22,0 -3852.65,2854.97 -4564.09,3596.11 -858.69,897.46 -1826.67,1937.57 -2570.44,2889.26 1352.47,-2012.12 3198.71,-4384.74 3198.71,-4744.96 19.2,-251.39 -544.82,-1108.01 -878.07,-1420.84 -423.25,-373.89 -577.23,-231.25 -557.84,-231.25 301.3,163.07 63.97,842.86 -358.72,1543.07 -1339.92,2182.39 -3692.49,5193.78 -3859.31,6199.79 -89.72,544.17 705.55,1618.28 891.19,1658.64 192.38,34.38 378.01,-94.97 224.32,-149.2 -31.94,0 -51.24,-34.18 -70.62,-68 -153.7,-557.47 2711.86,-3589.65 4339.87,-5227.78 2064.01,-2086.95 3929.36,-3018.32 4044.84,-3018.32 0,0 38.5,0 38.5,34.19 0,54.32 -1320.71,1740.03 -2115.33,2909.3 -1423.28,2080.3 -2089.86,3269.98 -2205.16,3630.11 -19.39,54.32 -38.49,129.16 -38.49,183.67 -44.96,679.79 852.5,1869.57 1493.42,1869.57 545.01,0 2545.05,-2053.24 3647.35,-3236.08 1013.13,-1114.66 1910.49,-2229.7 2282.05,-2732.66 89.72,-129.34 -32.04,-271.89 -153.51,-142.74 -2282.05,2331.88 -5096.19,4778.87 -5468.21,4778.87 -70.34,0 -83.17,-34.19 -83.17,-88.42 12.83,-380.54 775.88,-1638.41 1724.11,-3018.32 1070.73,-1563.48 1660.51,-2195.6 2493.72,-3235.8zm-13012.41 512.14c-160.25,1365.2 -7976.08,5746.38 -8737.54,5746.38 -144.89,0 -160.25,-72.87 -160.25,-125.97 0,-589.69 1889.04,-2677.67 4167.25,-4533.38 1591.96,-1298.89 3366.74,-2386.01 4837.13,-2664.37 159.87,-39.71 335.02,-52.92 494.9,-52.92 304.77,0 563.93,85.98 647.57,384.48 83.73,331 -83.64,841.54 -601.86,1451.09 -182.55,-172.25 -243.8,-205.31 -304.78,-238.37 -319.66,-198.66 -441.98,-92.82 -418.75,-92.82 60.78,39.62 76.33,92.82 76.33,125.88zm1932.13 -510.08c0,-1054.06 -1287.46,-1961.91 -2879.61,-1961.91 -1447.62,0 -3664.11,1120.09 -5614.22,2538.58 -2300.5,1663.14 -4235.35,3824.09 -4235.35,4944.18 0,841.54 1310.22,1961.64 1897.01,1961.64 784.41,0 3603.04,-1961.64 5857.46,-3764.61l1348.53 -1073.45c-1531.07,1703.13 -2254.88,2610.98 -2376.64,2909.29 -22.95,53.2 -37.94,126.26 -37.94,172.25 -60.88,669.49 1066.05,1776.47 1835.85,1776.47 14.99,0 37.93,0 99,-19.95 1264.24,-318.17 5994.87,-4645.87 6947.21,-5799.3 98.72,-125.79 -45.99,-265.07 -182.83,-139 -2658.47,2240.09 -6116.9,4678.74 -6566.38,4678.74 -99.28,0 -99.28,-39.34 -99.28,-92.44 22.85,-318.26 1066.89,-1835.94 2818.91,-3572.32l502.4 -490.69c22.86,-33.07 45.9,-52.92 45.9,-85.98 14.89,-159.13 -312.46,-649.36 -624.82,-1020.53 624.82,-258.79 1264.8,-696.09 1264.8,-960.97zm-11634.28 104.72l4925.16 -6572.01c13.49,-40.46 34.93,-74.92 33.34,-107.99 11.9,-247.73 -883.88,-1269.2 -1301.79,-1544.47 -521.04,-350.29 -697.78,-202.21 -675.2,-203.05 366.12,143.67 489.19,922.37 71.08,1668.85 -799.86,1444.91 -3481.94,4360.67 -5352.25,6861.69 -1647.12,2177.53 -3299.86,4582.18 -3662.89,5533.21 -34.19,88.51 -68,197.07 -63.79,283.51 -7.87,334.37 419.23,815.89 917.13,1160.65 315.73,212.99 628,345.89 910.67,333.15 603.64,-27.25 2921.94,-2094.63 4196.48,-3367.11 1282.12,-1279.97 2208.8,-2289.45 2629.15,-2822.85 93.48,-124.19 -72.68,-243.51 -211.86,-110.42 -2579.33,2392.94 -5885.65,4958.6 -6313.5,4977.8 -76.33,3.56 -100.78,-28.76 -103.21,-81.96 -33.25,-739.64 3885.71,-5857.27 4001.48,-6009zm-12452.51 3930.01c1325.49,-1815.71 2324.76,-2980.57 3403.83,-3819.87 998.7,-781.32 2144.55,-1432.45 2810.57,-1432.45 439.56,0 739.18,260.29 739.18,629.4 0,3385.66 -6120.84,7973.08 -8005.86,7973.08 -233.12,0 -439.74,-79.99 -439.74,-361.81 0,-521.04 499.68,-1490.34 1492.02,-2988.35zm10113.79 -2408.96c157.54,-14.61 85.42,-267.78 -13.3,-267.78 -525.06,43.18 -1582.31,137.5 -2310.89,231.35 138.05,-441.52 223.19,-839.3 223.19,-1208.04 0,-1027.56 -1372.23,-2250.02 -2409.62,-2250.02 -1129.17,0 -2238.96,477.2 -3263.05,1302.26 -243.05,-405.36 -571.43,-825.06 -761.46,-1020.06 -433.56,-398.15 -591.1,-246.05 -578.17,-246.05 315.35,166.25 105.36,875.27 -360.79,1642.16 -676.32,1114.47 -2514.61,3899.76 -3571.85,5621.72 -1464.3,2394.63 -3834.29,6851.49 -4654.95,9217.18 -446.3,1338.88 1542.88,2604.99 1542.88,2337.02 -814.39,-1070.73 2114.11,-6388.33 3992.01,-9752.82 485.64,702.08 1444.44,1186.59 2015.59,1186.59 2304.62,0 4733.81,-2177.8 6138.91,-3885.15 682.6,-824.78 1214.41,-1722.05 1549.34,-2539.52 571.33,-101.44 1786.12,-289.32 2462.16,-368.84z"></path> <path class="fil0" d="M54463.91 11092.45c0,-3204.24 -896.52,-5681.85 -2689.47,-7432.38 -1517.22,-1467.94 -3924.12,-2202.06 -7220.61,-2202.06 -719.69,0 -1192.68,141.33 -1411.56,430.65 -126.82,169.34 -190.7,522.16 -190.7,1058.47l0 16085.99c0,698.52 190.7,1150.34 557.85,1340.94 275.36,112.86 734.02,169.34 1383.56,169.34 6380.74,0 9570.93,-3147.95 9570.93,-9450.95zm2583.17 -35.31c0,2745.76 -670.61,5011.51 -2018.96,6797.07 -1820.76,2442.02 -4721.54,3656.24 -8709.72,3656.24l-8342.85 0 0 -564.87c1178.73,-112.58 1962.39,-331.56 2357.73,-663.4 472.99,-409.11 705.83,-1178.44 705.83,-2279.8l0 -13975.34c0,-1157.47 -232.84,-1940.85 -705.83,-2336 -345.98,-310.49 -1136.58,-522.54 -2357.73,-628l0 -572.08 7968.87 0c3536.26,0 6274.91,889.59 8222.87,2682.26 1919.95,1771.51 2879.79,4397.01 2879.79,7883.92zm-29336.3 10481.5l-8746.81 -27.91 0 -560.65c1212.25,-98.07 2031.88,-280.24 2452.14,-567.59 546.51,-420.35 819.9,-1204.85 819.9,-2353.98l0 -13872.31c0,-1205.05 -287.44,-2010.81 -854.84,-2410.18 -399.37,-259.16 -1204.95,-441.24 -2417.2,-532.18l0 -567.59 17291.59 0 231.06 4252.86 -707.79 0c-273.49,-1436.47 -707.52,-2347.33 -1303.01,-2725.53 -609.83,-378.39 -1877.53,-567.59 -3776.32,-567.59l-5009.46 0c-504.36,0 -819.44,49.18 -973.79,140.03 -245.39,175.24 -364.53,483.38 -364.53,938.95l0 7293.57 5675.2 0c1408.1,0 2361.01,-210.46 2851.23,-630.81 378.76,-343.17 665.93,-1106.89 862.05,-2297.88l700.68 0 0 7062.32 -700.68 0c-196.12,-1289.34 -525.62,-2094.82 -966.86,-2438.37 -448.54,-357.22 -1358.93,-539.58 -2746.42,-539.58l-5675.2 0 0 7889.06c0,672.58 315.45,1121.03 960.03,1303.2 574.42,154.35 850.81,238.37 3078.54,252.23l-679.51 959.93zm9335.28 -5837.33l-941.57 5877.7c-659.56,-1.03 -8363.46,-21.73 -8393.71,-40.37 -420.16,-259.53 338.68,-611.79 679.51,-959.93 780.29,48.61 5048.51,-1064.27 5535.64,-1353.87 966.96,-564.4 1652.09,-1886.14 2449.89,-3523.53l670.24 0zm-18395.48 2216.59c-451.92,705.64 -1249.44,1425.8 -2393.04,2166.75 -1792.67,1206.82 -3740.63,1806.62 -5829.83,1806.62 -2745.77,0 -5075.02,-839.76 -6994.7,-2519.66 -2287.01,-1997.32 -3437.17,-4806.31 -3437.17,-8427.34 0,-3352.59 1136.2,-6070.16 3401.96,-8137.92 2039.84,-1870.69 4446.55,-2802.24 7213.58,-2802.24 1044.41,0 2173.87,169.34 3366.73,515.23 1199.61,338.49 1813.65,508.39 1863.2,508.39 458.66,0 776.36,-317.79 980.91,-967.14l783.76 -56.48 747.79 6740.5 -825.62 119.79c-423.35,-1813.74 -1157.47,-3232.42 -2209.28,-4262.98 -1192.77,-1122.15 -2674.77,-1679.9 -4446.55,-1679.9 -945.7,0 -1905.54,155.38 -2872.68,479.83 -1051.53,381.38 -1884.36,896.61 -2512.74,1545.78 -1891.67,1976.62 -2851.5,4665.53 -2872.77,8053.43 -27.91,3197.59 931.74,5696.18 2872.77,7481.74 1623.71,1531.73 3543.57,2287.01 5766.71,2287.01 2562,0 4841.9,-1101.17 6839.12,-3310.35l557.85 458.94z"></path> <path class="fil1" d="M65348.41 29452.37c29.71,393.27 -144.64,737.59 -521.37,1032.87 -413.67,331.08 -973.91,496.58 -1684.56,496.58 -311.6,0 -626.98,-51.65 -946.12,-156.26 -311.6,-92.68 -500.89,-139.02 -565.86,-139.02 -244.86,0 -384.03,95.29 -411.82,287.35l-239.32 0 -326.54 -1761.23 261.64 0c411.83,1018.33 1122.33,1528.15 2129.8,1528.15 441.54,0 818.11,-108.62 1129.79,-325.77 311.68,-211.84 467.48,-444.93 467.48,-699.18 0,-268.8 -114.93,-508.51 -346.94,-720.35 -261.49,-238.4 -775.46,-544.3 -1543.46,-916.41 -695.79,-331 -1113.16,-550.84 -1250.41,-659.46 -354.4,-252.87 -532.45,-566.7 -532.45,-938.81 0,-455.55 190.98,-814.41 575.02,-1077.98 348.86,-243.63 779.31,-365.41 1294.98,-365.41 246.79,0 543.53,48.96 890.47,148.26 348.93,97.99 547.3,147.02 597.49,147.02 139.1,0 222.62,-35.79 250.41,-108.61 22.32,-62.2 40.87,-124.47 55.65,-186.67l237.47 0 239.32 1769.08 -259.72 0c-116.85,-423.68 -322.76,-773.31 -619.66,-1047.42 -363.64,-331.08 -808.87,-496.58 -1337.62,-496.58 -311.68,0 -593.65,72.82 -847.83,217.15 -296.82,181.44 -445.23,414.52 -445.23,699.18 0,366.87 315.37,723.05 946.12,1069.98 586.26,300.59 1176.28,602.57 1771.78,908.4 651.22,393.35 996.31,825.04 1031.49,1295.14zm5968.47 1427.46l-2076.07 0 0 -154.88c209.54,-10.62 354.25,-30.48 434.08,-62.28 152.18,-56.96 228.23,-165.5 228.23,-325.76 0,-128.4 -50.19,-315.14 -152.18,-558.78l-326.46 -768.07 -2239.25 0 -358.1 985.23c-42.72,124.47 -64.89,238.32 -64.89,341.62 0,165.58 61.12,274.11 185.51,325.76 57.43,31.8 168.74,51.66 335.78,62.28l0 154.88 -1532.46 0 0 -154.88c57.5,-10.62 118.78,-22.56 185.52,-38.41 64.89,-15.94 126.16,-59.58 183.66,-132.4 116.85,-144.41 307.99,-553.54 576.94,-1226.24l1706.89 -4258.74 64.89 0 2064.9 4895.64c137.33,315.22 265.34,524.45 380.27,629.06 79.82,66.2 213.45,111.23 402.74,131.09l0 154.88zm-2011.1 -2157.12l-1022.33 -2543.86 -999.92 2543.86 2022.25 0zm7576.83 -3413.85c-289.43,47.65 -473.1,129.78 -552.92,248.94 -109.47,139.1 -163.27,431.69 -163.27,876.62l0 2249.87c0,610.51 -87.14,1079.22 -261.49,1404.98 -319.15,594.57 -938.81,892.55 -1860.92,892.55 -1378.42,0 -2066.75,-726.97 -2066.75,-2180.98l0 -2684.18c0,-290.05 -18.55,-468.79 -55.65,-536.3 -79.75,-154.96 -281.97,-245.02 -608.43,-271.5l0 -154.95 2207.7 0 0 154.95c-348.78,31.79 -573.32,93.99 -675.32,186.75 -92.76,92.68 -140.94,300.59 -140.94,621.05l0 2754.38c0,1240.79 523.13,1861.84 1567.63,1861.84 610.35,0 1062.97,-252.95 1361.72,-760.15 129.86,-217.15 194.75,-621.05 194.75,-1210.3l0 -2328.01c0,-414.45 -11.08,-651.46 -31.48,-713.73 -79.75,-243.63 -304.22,-380.04 -675.32,-411.83l0 -154.95 1760.69 0 0 154.95zm5549.03 2731.91c0,744.21 -194.83,1359.95 -586.18,1845.9 -528.83,662.16 -1373.04,993.16 -2532.46,993.16l-2424.77 0 0 -154.88c341.31,-30.48 569.55,-90.06 684.48,-178.82 137.32,-112.54 205.99,-320.45 205.99,-619.74l0 -3795.19c0,-315.14 -68.67,-527.06 -205.99,-635.59 -100.07,-83.45 -330.23,-140.41 -684.48,-170.81l0 -154.96 2315.31 0c1029.64,0 1825.5,242.32 2391.36,729.66 558.39,480.65 836.74,1194.45 836.74,2141.27zm-749.53 7.93c0,-870.07 -261.56,-1541.39 -782.93,-2018.1 -441.54,-398.59 -1140.95,-597.27 -2098.23,-597.27 -209.61,0 -346.94,38.41 -411.83,116.55 -37.1,46.34 -55.65,141.71 -55.65,287.35l0 4368.59c0,190.67 55.65,312.52 163.19,364.17 79.75,30.49 213.38,46.34 402.59,46.34 1855.22,0 2782.86,-855.44 2782.86,-2567.63zm6319.03 1435.46l-402.59 1397.05 -5153.83 0 0 -154.95c356.25,-26.48 595.5,-78.13 717.89,-156.27 159.65,-112.54 239.32,-328.38 239.32,-643.6l0 -3793.88c0,-331 -83.44,-550.84 -250.41,-659.46 -115.08,-72.82 -350.55,-121.77 -706.8,-146.95l0 -156.26 5066.69 0 64.89 1163.97 -205.99 0c-79.82,-393.28 -207.83,-640.91 -380.26,-744.21 -181.82,-103.31 -551.08,-154.96 -1109.47,-154.96l-1467.48 0c-144.72,0 -239.32,11.93 -281.97,38.41 -72.43,46.34 -109.46,131.09 -109.46,255.57l0 1994.31 1662.31 0c413.68,0 693.87,-56.96 838.43,-170.81 107.7,-92.76 191.14,-301.98 248.72,-627.67l207.68 0 0 1931.96 -207.68 0c-57.58,-352.17 -152.19,-574.71 -281.97,-667.39 -129.86,-99.3 -398.97,-148.25 -805.18,-148.25l-1662.31 0 0 2157.12c0,186.74 94.53,305.9 281.97,357.56 181.81,41.02 645.6,62.19 1391.43,62.19 608.42,0 1055.58,-78.13 1337.62,-233.01 281.97,-154.95 539.84,-455.54 771.85,-900.47l196.6 0z"></path> <polygon class="fil1" points="75906.54,23442.48 74309.12,24777.26 74125.45,24777.26 74693.16,23442.48 "></polygon> </g> <g> <path class="fil0" d="M94977.8 13958.11c13.02,-34 32.13,-74.64 32.13,-108.64 19.1,-217.86 -506.52,-1081.04 -878.36,-1495.77 -192.19,-197.25 -391.03,-373.8 -608.89,-373.8 -750.22,0 -3852.65,2854.97 -4564.09,3596.11 -858.69,897.46 -1826.67,1937.57 -2570.44,2889.26 1352.47,-2012.12 3198.71,-4384.74 3198.71,-4744.96 19.2,-251.39 -544.82,-1108.01 -878.07,-1420.84 -423.25,-373.89 -577.23,-231.25 -557.84,-231.25 301.3,163.07 63.97,842.86 -358.72,1543.07 -1339.92,2182.39 -3692.49,5193.78 -3859.31,6199.79 -89.72,544.17 705.55,1618.28 891.19,1658.64 192.38,34.38 378.01,-94.97 224.32,-149.2 -31.94,0 -51.24,-34.18 -70.62,-68 -153.7,-557.47 2711.86,-3589.65 4339.87,-5227.78 2064.01,-2086.95 3929.36,-3018.32 4044.84,-3018.32 0,0 38.5,0 38.5,34.19 0,54.32 -1320.71,1740.03 -2115.33,2909.3 -1423.28,2080.3 -2089.86,3269.98 -2205.16,3630.11 -19.39,54.32 -38.49,129.16 -38.49,183.67 -44.96,679.79 852.5,1869.57 1493.42,1869.57 545.01,0 2545.05,-2053.24 3647.35,-3236.08 1013.13,-1114.66 1910.49,-2229.7 2282.05,-2732.66 89.72,-129.34 -32.04,-271.89 -153.51,-142.74 -2282.05,2331.88 -5096.19,4778.87 -5468.21,4778.87 -70.34,0 -83.17,-34.19 -83.17,-88.42 12.83,-380.54 775.88,-1638.41 1724.11,-3018.32 1070.73,-1563.48 1660.51,-2195.6 2493.72,-3235.8zm-13012.41 512.14c-160.25,1365.2 -7976.08,5746.38 -8737.54,5746.38 -144.89,0 -160.25,-72.87 -160.25,-125.97 0,-589.69 1889.04,-2677.67 4167.25,-4533.38 1591.96,-1298.89 3366.74,-2386.01 4837.13,-2664.37 159.87,-39.71 335.02,-52.92 494.9,-52.92 304.77,0 563.93,85.98 647.57,384.48 83.73,331 -83.64,841.54 -601.86,1451.09 -182.55,-172.25 -243.8,-205.31 -304.78,-238.37 -319.66,-198.66 -441.98,-92.82 -418.75,-92.82 60.78,39.62 76.33,92.82 76.33,125.88zm1932.13 -510.08c0,-1054.06 -1287.46,-1961.91 -2879.61,-1961.91 -1447.62,0 -3664.11,1120.09 -5614.22,2538.58 -2300.5,1663.14 -4235.35,3824.09 -4235.35,4944.18 0,841.54 1310.22,1961.64 1897.01,1961.64 784.41,0 3603.04,-1961.64 5857.46,-3764.61l1348.53 -1073.45c-1531.07,1703.13 -2254.88,2610.98 -2376.64,2909.29 -22.95,53.2 -37.94,126.26 -37.94,172.25 -60.88,669.49 1066.05,1776.47 1835.85,1776.47 14.99,0 37.93,0 99,-19.95 1264.24,-318.17 5994.87,-4645.87 6947.21,-5799.3 98.72,-125.79 -45.99,-265.07 -182.83,-139 -2658.47,2240.09 -6116.9,4678.74 -6566.38,4678.74 -99.28,0 -99.28,-39.34 -99.28,-92.44 22.85,-318.26 1066.89,-1835.94 2818.91,-3572.32l502.4 -490.69c22.86,-33.07 45.9,-52.92 45.9,-85.98 14.89,-159.13 -312.46,-649.36 -624.82,-1020.53 624.82,-258.79 1264.8,-696.09 1264.8,-960.97zm-11634.28 104.72l4925.16 -6572.01c13.49,-40.46 34.93,-74.92 33.34,-107.99 11.9,-247.73 -883.88,-1269.2 -1301.79,-1544.47 -521.04,-350.29 -697.78,-202.21 -675.2,-203.05 366.12,143.67 489.19,922.37 71.08,1668.85 -799.86,1444.91 -3481.94,4360.67 -5352.25,6861.69 -1647.12,2177.53 -3299.86,4582.18 -3662.89,5533.21 -34.19,88.51 -68,197.07 -63.79,283.51 -7.87,334.37 419.23,815.89 917.13,1160.65 315.73,212.99 628,345.89 910.67,333.15 603.64,-27.25 2921.94,-2094.63 4196.48,-3367.11 1282.12,-1279.97 2208.8,-2289.45 2629.15,-2822.85 93.48,-124.19 -72.68,-243.51 -211.86,-110.42 -2579.33,2392.94 -5885.65,4958.6 -6313.5,4977.8 -76.33,3.56 -100.78,-28.76 -103.21,-81.96 -33.25,-739.64 3885.71,-5857.27 4001.48,-6009zm-12452.51 3930.01c1325.49,-1815.71 2324.76,-2980.57 3403.83,-3819.87 998.7,-781.32 2144.55,-1432.45 2810.57,-1432.45 439.56,0 739.18,260.29 739.18,629.4 0,3385.66 -6120.84,7973.08 -8005.86,7973.08 -233.12,0 -439.74,-79.99 -439.74,-361.81 0,-521.04 499.68,-1490.34 1492.02,-2988.35zm10113.79 -2408.96c157.54,-14.61 85.42,-267.78 -13.3,-267.78 -525.06,43.18 -1582.31,137.5 -2310.89,231.35 138.05,-441.52 223.19,-839.3 223.19,-1208.04 0,-1027.56 -1372.23,-2250.02 -2409.62,-2250.02 -1129.17,0 -2238.96,477.2 -3263.05,1302.26 -243.05,-405.36 -571.43,-825.06 -761.46,-1020.06 -433.56,-398.15 -591.1,-246.05 -578.17,-246.05 315.35,166.25 105.36,875.27 -360.79,1642.16 -676.32,1114.47 -2514.61,3899.76 -3571.85,5621.72 -1464.3,2394.63 -3834.29,6851.49 -4654.95,9217.18 -446.3,1338.88 1542.88,2604.99 1542.88,2337.02 -814.39,-1070.73 2114.11,-6388.33 3992.01,-9752.82 485.64,702.08 1444.44,1186.59 2015.59,1186.59 2304.62,0 4733.81,-2177.8 6138.91,-3885.15 682.6,-824.78 1214.41,-1722.05 1549.34,-2539.52 571.33,-101.44 1786.12,-289.32 2462.16,-368.84z"></path> <path class="fil0" d="M54463.91 11092.45c0,-3204.24 -896.52,-5681.85 -2689.47,-7432.38 -1517.22,-1467.94 -3924.12,-2202.06 -7220.61,-2202.06 -719.69,0 -1192.68,141.33 -1411.56,430.65 -126.82,169.34 -190.7,522.16 -190.7,1058.47l0 16085.99c0,698.52 190.7,1150.34 557.85,1340.94 275.36,112.86 734.02,169.34 1383.56,169.34 6380.74,0 9570.93,-3147.95 9570.93,-9450.95zm2583.17 -35.31c0,2745.76 -670.61,5011.51 -2018.96,6797.07 -1820.76,2442.02 -4721.54,3656.24 -8709.72,3656.24l-8342.85 0 0 -564.87c1178.73,-112.58 1962.39,-331.56 2357.73,-663.4 472.99,-409.11 705.83,-1178.44 705.83,-2279.8l0 -13975.34c0,-1157.47 -232.84,-1940.85 -705.83,-2336 -345.98,-310.49 -1136.58,-522.54 -2357.73,-628l0 -572.08 7968.87 0c3536.26,0 6274.91,889.59 8222.87,2682.26 1919.95,1771.51 2879.79,4397.01 2879.79,7883.92zm-29336.3 10481.5l-8746.81 -27.91 0 -560.65c1212.25,-98.07 2031.88,-280.24 2452.14,-567.59 546.51,-420.35 819.9,-1204.85 819.9,-2353.98l0 -13872.31c0,-1205.05 -287.44,-2010.81 -854.84,-2410.18 -399.37,-259.16 -1204.95,-441.24 -2417.2,-532.18l0 -567.59 17291.59 0 231.06 4252.86 -707.79 0c-273.49,-1436.47 -707.52,-2347.33 -1303.01,-2725.53 -609.83,-378.39 -1877.53,-567.59 -3776.32,-567.59l-5009.46 0c-504.36,0 -819.44,49.18 -973.79,140.03 -245.39,175.24 -364.53,483.38 -364.53,938.95l0 7293.57 5675.2 0c1408.1,0 2361.01,-210.46 2851.23,-630.81 378.76,-343.17 665.93,-1106.89 862.05,-2297.88l700.68 0 0 7062.32 -700.68 0c-196.12,-1289.34 -525.62,-2094.82 -966.86,-2438.37 -448.54,-357.22 -1358.93,-539.58 -2746.42,-539.58l-5675.2 0 0 7889.06c0,672.58 315.45,1121.03 960.03,1303.2 574.42,154.35 850.81,238.37 3078.54,252.23l-679.51 959.93zm9335.28 -5837.33l-941.57 5877.7c-659.56,-1.03 -8363.46,-21.73 -8393.71,-40.37 -420.16,-259.53 338.68,-611.79 679.51,-959.93 780.29,48.61 5048.51,-1064.27 5535.64,-1353.87 966.96,-564.4 1652.09,-1886.14 2449.89,-3523.53l670.24 0zm-18395.48 2216.59c-451.92,705.64 -1249.44,1425.8 -2393.04,2166.75 -1792.67,1206.82 -3740.63,1806.62 -5829.83,1806.62 -2745.77,0 -5075.02,-839.76 -6994.7,-2519.66 -2287.01,-1997.32 -3437.17,-4806.31 -3437.17,-8427.34 0,-3352.59 1136.2,-6070.16 3401.96,-8137.92 2039.84,-1870.69 4446.55,-2802.24 7213.58,-2802.24 1044.41,0 2173.87,169.34 3366.73,515.23 1199.61,338.49 1813.65,508.39 1863.2,508.39 458.66,0 776.36,-317.79 980.91,-967.14l783.76 -56.48 747.79 6740.5 -825.62 119.79c-423.35,-1813.74 -1157.47,-3232.42 -2209.28,-4262.98 -1192.77,-1122.15 -2674.77,-1679.9 -4446.55,-1679.9 -945.7,0 -1905.54,155.38 -2872.68,479.83 -1051.53,381.38 -1884.36,896.61 -2512.74,1545.78 -1891.67,1976.62 -2851.5,4665.53 -2872.77,8053.43 -27.91,3197.59 931.74,5696.18 2872.77,7481.74 1623.71,1531.73 3543.57,2287.01 5766.71,2287.01 2562,0 4841.9,-1101.17 6839.12,-3310.35l557.85 458.94z"></path> <path class="fil1" d="M65348.41 29452.37c29.71,393.27 -144.64,737.59 -521.37,1032.87 -413.67,331.08 -973.91,496.58 -1684.56,496.58 -311.6,0 -626.98,-51.65 -946.12,-156.26 -311.6,-92.68 -500.89,-139.02 -565.86,-139.02 -244.86,0 -384.03,95.29 -411.82,287.35l-239.32 0 -326.54 -1761.23 261.64 0c411.83,1018.33 1122.33,1528.15 2129.8,1528.15 441.54,0 818.11,-108.62 1129.79,-325.77 311.68,-211.84 467.48,-444.93 467.48,-699.18 0,-268.8 -114.93,-508.51 -346.94,-720.35 -261.49,-238.4 -775.46,-544.3 -1543.46,-916.41 -695.79,-331 -1113.16,-550.84 -1250.41,-659.46 -354.4,-252.87 -532.45,-566.7 -532.45,-938.81 0,-455.55 190.98,-814.41 575.02,-1077.98 348.86,-243.63 779.31,-365.41 1294.98,-365.41 246.79,0 543.53,48.96 890.47,148.26 348.93,97.99 547.3,147.02 597.49,147.02 139.1,0 222.62,-35.79 250.41,-108.61 22.32,-62.2 40.87,-124.47 55.65,-186.67l237.47 0 239.32 1769.08 -259.72 0c-116.85,-423.68 -322.76,-773.31 -619.66,-1047.42 -363.64,-331.08 -808.87,-496.58 -1337.62,-496.58 -311.68,0 -593.65,72.82 -847.83,217.15 -296.82,181.44 -445.23,414.52 -445.23,699.18 0,366.87 315.37,723.05 946.12,1069.98 586.26,300.59 1176.28,602.57 1771.78,908.4 651.22,393.35 996.31,825.04 1031.49,1295.14zm5968.47 1427.46l-2076.07 0 0 -154.88c209.54,-10.62 354.25,-30.48 434.08,-62.28 152.18,-56.96 228.23,-165.5 228.23,-325.76 0,-128.4 -50.19,-315.14 -152.18,-558.78l-326.46 -768.07 -2239.25 0 -358.1 985.23c-42.72,124.47 -64.89,238.32 -64.89,341.62 0,165.58 61.12,274.11 185.51,325.76 57.43,31.8 168.74,51.66 335.78,62.28l0 154.88 -1532.46 0 0 -154.88c57.5,-10.62 118.78,-22.56 185.52,-38.41 64.89,-15.94 126.16,-59.58 183.66,-132.4 116.85,-144.41 307.99,-553.54 576.94,-1226.24l1706.89 -4258.74 64.89 0 2064.9 4895.64c137.33,315.22 265.34,524.45 380.27,629.06 79.82,66.2 213.45,111.23 402.74,131.09l0 154.88zm-2011.1 -2157.12l-1022.33 -2543.86 -999.92 2543.86 2022.25 0zm7576.83 -3413.85c-289.43,47.65 -473.1,129.78 -552.92,248.94 -109.47,139.1 -163.27,431.69 -163.27,876.62l0 2249.87c0,610.51 -87.14,1079.22 -261.49,1404.98 -319.15,594.57 -938.81,892.55 -1860.92,892.55 -1378.42,0 -2066.75,-726.97 -2066.75,-2180.98l0 -2684.18c0,-290.05 -18.55,-468.79 -55.65,-536.3 -79.75,-154.96 -281.97,-245.02 -608.43,-271.5l0 -154.95 2207.7 0 0 154.95c-348.78,31.79 -573.32,93.99 -675.32,186.75 -92.76,92.68 -140.94,300.59 -140.94,621.05l0 2754.38c0,1240.79 523.13,1861.84 1567.63,1861.84 610.35,0 1062.97,-252.95 1361.72,-760.15 129.86,-217.15 194.75,-621.05 194.75,-1210.3l0 -2328.01c0,-414.45 -11.08,-651.46 -31.48,-713.73 -79.75,-243.63 -304.22,-380.04 -675.32,-411.83l0 -154.95 1760.69 0 0 154.95zm5549.03 2731.91c0,744.21 -194.83,1359.95 -586.18,1845.9 -528.83,662.16 -1373.04,993.16 -2532.46,993.16l-2424.77 0 0 -154.88c341.31,-30.48 569.55,-90.06 684.48,-178.82 137.32,-112.54 205.99,-320.45 205.99,-619.74l0 -3795.19c0,-315.14 -68.67,-527.06 -205.99,-635.59 -100.07,-83.45 -330.23,-140.41 -684.48,-170.81l0 -154.96 2315.31 0c1029.64,0 1825.5,242.32 2391.36,729.66 558.39,480.65 836.74,1194.45 836.74,2141.27zm-749.53 7.93c0,-870.07 -261.56,-1541.39 -782.93,-2018.1 -441.54,-398.59 -1140.95,-597.27 -2098.23,-597.27 -209.61,0 -346.94,38.41 -411.83,116.55 -37.1,46.34 -55.65,141.71 -55.65,287.35l0 4368.59c0,190.67 55.65,312.52 163.19,364.17 79.75,30.49 213.38,46.34 402.59,46.34 1855.22,0 2782.86,-855.44 2782.86,-2567.63zm6319.03 1435.46l-402.59 1397.05 -5153.83 0 0 -154.95c356.25,-26.48 595.5,-78.13 717.89,-156.27 159.65,-112.54 239.32,-328.38 239.32,-643.6l0 -3793.88c0,-331 -83.44,-550.84 -250.41,-659.46 -115.08,-72.82 -350.55,-121.77 -706.8,-146.95l0 -156.26 5066.69 0 64.89 1163.97 -205.99 0c-79.82,-393.28 -207.83,-640.91 -380.26,-744.21 -181.82,-103.31 -551.08,-154.96 -1109.47,-154.96l-1467.48 0c-144.72,0 -239.32,11.93 -281.97,38.41 -72.43,46.34 -109.46,131.09 -109.46,255.57l0 1994.31 1662.31 0c413.68,0 693.87,-56.96 838.43,-170.81 107.7,-92.76 191.14,-301.98 248.72,-627.67l207.68 0 0 1931.96 -207.68 0c-57.58,-352.17 -152.19,-574.71 -281.97,-667.39 -129.86,-99.3 -398.97,-148.25 -805.18,-148.25l-1662.31 0 0 2157.12c0,186.74 94.53,305.9 281.97,357.56 181.81,41.02 645.6,62.19 1391.43,62.19 608.42,0 1055.58,-78.13 1337.62,-233.01 281.97,-154.95 539.84,-455.54 771.85,-900.47l196.6 0z"></path> <polygon class="fil1" points="75906.54,23442.48 74309.12,24777.26 74125.45,24777.26 74693.16,23442.48 "></polygon> </g> </g> </g> </svg>